# xmcd CD database file generated by LOLA_Freedb v0.9beta0
# 
# Track frame offsets:
#      150
#      20819
#      42212
#      60587
#      80344
#      103056
#      130206
#      152131
#      169276
#      185436
#      202152
#      222165
#      247692
#      269164
#      289491
#      311225
#      328001
# 
# Disc length: 4782 seconds
# 
# Revision: 1 
# Processed by: cddbd v1.5.2PL0 Copyright (c) Steve Scherf et al.
# Submitted via: LOLA_Freedb v0.9beta0
# 
DISCID=0812ac11
DTITLE=Chris Rea - The Journey 1978 - 2009 [CD2]
DYEAR=2011
DGENRE=Blues
TTITLE0=Chris Rea - The Road To Hell (Part 2)
TTITLE1=Chris Rea - Auberge
TTITLE2=Chris Rea - Fool (If You Think It's Over)
TTITLE3=Chris Rea - Soft Top, Hard Shoulder
TTITLE4=Chris Rea - Looking For The Summer
TTITLE5=Chris Rea - Tell Me There's A Heaven
TTITLE6=Chris Rea - Diamonds
TTITLE7=Chris Rea - Loving You
TTITLE8=Chris Rea - I Don't Know What It Is But I Love It
TTITLE9=Chris Rea - On The Beach (Summer '88)
TTITLE10=Chris Rea - Windy Town
TTITLE11=Chris Rea - Giverny
TTITLE12=The Blue Cafe
TTITLE13=Winter Song
TTITLE14=Easy Rider
TTITLE15=Two Roads
TTITLE16=Saudade Part 1&2 (Tribute To Ayrton Senna)
EXTD=
EXTT0=
EXTT1=
EXTT2=
EXTT3=
EXTT4=
EXTT5=
EXTT6=
EXTT7=
EXTT8=
EXTT9=
EXTT10=
EXTT11=
EXTT12=
EXTT13=
EXTT14=
EXTT15=
EXTT16=
PLAYORDER=
